<svg width="945" height="518" viewBox="0 0 945 518" fill="none" xmlns="http://www.w3.org/2000/svg">
<path d="M29.3735 258.087H131.772V338.981H29.3735V258.087Z" fill="#3F3D56"/>
<path d="M11.7234 258.087H105.393V338.981H11.7234V258.087Z" fill="#0017EA"/>
<path d="M11.468 339.305H105.774V257.764H11.468V339.305ZM105.074 338.658H12.0418V258.411H105.074V338.658Z" fill="#3F3D56"/>
<path d="M43.8379 258.087V278.262L49.7 274.964L54.2242 278.068L59.6405 274.964L64.6108 278.262V258.087H43.8379Z" fill="#3F3D56"/>
<path d="M64.6112 297.791H86.2124V299.084H64.6112V297.791Z" fill="#3F3D56"/>
<path d="M64.6112 306.326H86.2124V307.62H64.6112V306.326Z" fill="#3F3D56"/>
<path d="M64.6112 314.862H86.2124V316.155H64.6112V314.862Z" fill="#3F3D56"/>
<path d="M23.3202 296.045H58.3027V318.224H23.3202V296.045Z" fill="#FEFEFE"/>
<path d="M23.0014 318.483H58.6211V295.657H23.0014V318.483ZM57.9839 317.836H23.6386V296.303H57.9839V317.836Z" fill="#3F3D56"/>
<path d="M128.971 353.789H101.634C100.36 353.789 99.0857 354.371 98.3211 355.406L84.4936 373.059C82.2634 375.904 84.2388 380.043 87.8072 380.043H128.971V353.789V353.789Z" fill="#00B0FF" fill-opacity="0.9"/>
<path d="M87.8074 380.366H129.29V353.466H101.635C100.233 353.466 98.8949 354.113 98.0665 355.212L84.239 372.865C83.1558 374.288 82.901 376.163 83.7294 377.779C84.4303 379.331 86.0233 380.366 87.8074 380.366ZM128.652 379.719H87.8074C86.2781 379.719 84.9399 378.879 84.239 377.456C83.6018 376.034 83.7294 374.417 84.6852 373.253L98.5124 355.6C99.277 354.63 100.36 354.113 101.571 354.113H128.589V379.719H128.652Z" fill="#3F3D56"/>
<path d="M407.493 242.826C407.493 245.219 405.582 247.094 403.288 247.094H389.524C387.167 247.094 385.319 245.154 385.319 242.826C385.319 240.434 387.23 238.559 389.524 238.559H403.288C405.582 238.494 407.493 240.434 407.493 242.826Z" fill="#3F3D56"/>
<path d="M355.561 247.87H372.51V272.248H355.561V247.87Z" fill="#3F3D56"/>
<path d="M399.209 428.67V286.151C399.209 274.059 389.524 264.23 377.608 264.23H315.162C303.246 264.23 293.561 274.059 293.561 286.151V417.418C293.561 428.54 284.704 437.529 273.744 437.529H256.221C245.261 437.529 236.404 428.54 236.404 417.418V360.062C236.404 360.062 236.85 342.732 247.364 340.21H139.421C139.421 340.21 94.5617 377.327 85.1311 437.141V443.736H399.209V428.67Z" fill="#0017EA"/>
<path d="M84.8122 444.06H399.528V286.151C399.528 273.865 389.715 263.907 377.608 263.907H315.162C303.055 263.907 293.242 273.865 293.242 286.151V417.418C293.242 428.346 284.512 437.205 273.744 437.205H256.22C245.452 437.205 236.722 428.346 236.722 417.418V360.062C236.722 359.868 237.232 342.99 247.491 340.533L250.167 339.887H139.357L139.293 339.951C139.166 340.016 127.887 349.457 115.653 366.011C104.311 381.336 89.7825 406.102 84.9398 437.076L84.8122 444.06ZM398.891 443.413H85.4494V437.141C90.2922 406.361 104.757 381.659 116.035 366.463C127.696 350.685 138.465 341.439 139.548 340.533H245.452C236.595 344.478 236.148 359.35 236.085 360.062V417.418C236.085 428.67 245.133 437.852 256.22 437.852H273.744C284.831 437.852 293.879 428.67 293.879 417.418V286.151C293.879 274.253 303.437 264.554 315.162 264.554H377.608C389.333 264.554 398.891 274.253 398.891 286.151V443.413Z" fill="#3F3D56"/>
<path d="M356.644 264.166H364.291V407.46H356.644V264.166Z" fill="#3F3D56"/>
<path d="M0.000228882 336.718H145.793V344.09H0.000228882V336.718Z" fill="#3F3D56"/>
<path d="M163.826 444.124H265.142V465.269H163.826V444.124Z" fill="#3F3D56"/>
<path d="M127.314 506.912C101.835 506.912 81.1801 483.086 81.1801 453.694C81.1801 424.303 101.835 400.476 127.314 400.476C152.793 400.476 173.447 424.303 173.447 453.694C173.447 483.086 152.793 506.912 127.314 506.912Z" fill="#2F2E41"/>
<path d="M119.54 485.961C102.964 485.961 89.5274 470.444 89.5274 451.302C89.5274 432.16 102.964 416.642 119.54 416.642C136.115 416.642 149.552 432.16 149.552 451.302C149.552 470.444 136.115 485.961 119.54 485.961Z" fill="#FEFEFE"/>
<path d="M119.54 486.285C136.299 486.285 149.871 470.572 149.871 451.302C149.871 432.032 136.235 416.319 119.54 416.319C102.845 416.319 89.209 432.032 89.209 451.302C89.209 470.572 102.782 486.285 119.54 486.285ZM119.54 416.965C135.916 416.965 149.234 432.355 149.234 451.302C149.234 470.248 135.916 485.638 119.54 485.638C103.164 485.638 89.8462 470.248 89.8462 451.302C89.8462 432.355 103.164 416.965 119.54 416.965Z" fill="#3F3D56"/>
<path d="M135.406 451.496C135.406 459.191 131.838 466.045 120.432 466.045C113.741 466.045 111.256 459.191 111.256 451.496C111.256 443.801 113.805 437.529 120.432 437.529C131.838 437.529 135.406 443.736 135.406 451.496Z" fill="#3F3D56"/>
<path d="M119.668 465.463C112.982 465.463 107.561 459.21 107.561 451.496C107.561 443.782 112.982 437.529 119.668 437.529C126.354 437.529 131.775 443.782 131.775 451.496C131.775 459.21 126.354 465.463 119.668 465.463Z" fill="#FEFEFE"/>
<path d="M119.668 465.722C126.486 465.722 132.093 459.32 132.093 451.431C132.093 443.542 126.55 437.141 119.668 437.141C112.786 437.141 107.242 443.542 107.242 451.431C107.242 459.32 112.85 465.722 119.668 465.722ZM119.668 437.852C126.167 437.852 131.456 443.995 131.456 451.496C131.456 458.997 126.167 465.14 119.668 465.14C113.168 465.14 107.879 458.997 107.879 451.496C107.879 443.995 113.168 437.852 119.668 437.852Z" fill="#3F3D56"/>
<path d="M387.23 506.912C361.751 506.912 341.097 483.086 341.097 453.694C341.097 424.303 361.751 400.476 387.23 400.476C412.709 400.476 433.364 424.303 433.364 453.694C433.364 483.086 412.709 506.912 387.23 506.912Z" fill="#2F2E41"/>
<path d="M379.456 485.961C362.88 485.961 349.444 470.444 349.444 451.302C349.444 432.16 362.88 416.642 379.456 416.642C396.031 416.642 409.468 432.16 409.468 451.302C409.468 470.444 396.031 485.961 379.456 485.961Z" fill="#FEFEFE"/>
<path d="M379.456 486.285C396.215 486.285 409.787 470.572 409.787 451.302C409.787 432.032 396.151 416.319 379.456 416.319C362.761 416.319 349.125 432.032 349.125 451.302C349.125 470.572 362.698 486.285 379.456 486.285ZM379.456 416.965C395.832 416.965 409.15 432.355 409.15 451.302C409.15 470.248 395.832 485.638 379.456 485.638C363.08 485.638 349.763 470.248 349.763 451.302C349.763 432.355 363.08 416.965 379.456 416.965Z" fill="#3F3D56"/>
<path d="M395.323 451.496C395.323 459.191 391.754 465.463 380.348 465.463C373.658 465.463 371.172 459.191 371.172 451.496C371.172 443.801 373.721 437.529 380.348 437.529C391.754 437.529 395.323 443.736 395.323 451.496Z" fill="#3F3D56"/>
<path d="M379.584 465.463C372.898 465.463 367.477 459.21 367.477 451.496C367.477 443.782 372.898 437.529 379.584 437.529C386.27 437.529 391.691 443.782 391.691 451.496C391.691 459.21 386.27 465.463 379.584 465.463Z" fill="#FEFEFE"/>
<path d="M379.584 465.722C386.402 465.722 392.009 459.32 392.009 451.431C392.009 443.542 386.466 437.141 379.584 437.141C372.702 437.141 367.158 443.542 367.158 451.431C367.158 459.32 372.766 465.722 379.584 465.722ZM379.584 437.852C386.083 437.852 391.372 443.995 391.372 451.496C391.372 458.997 386.083 465.14 379.584 465.14C373.084 465.14 367.795 458.997 367.795 451.496C367.795 443.995 373.148 437.852 379.584 437.852Z" fill="#3F3D56"/>
<path d="M42.502 437.334H48.3644C49.129 431.191 54.2902 426.471 60.5348 426.471H190.78V451.431H60.5348C54.6088 451.431 49.6386 447.163 48.4917 441.473H42.502V437.334V437.334Z" fill="#3F3D56"/>
<path d="M65.6324 443.736C65.6324 443.736 57.54 377.909 133.304 359.997C160.64 353.53 223.404 349.327 209.322 443.736H65.6324Z" fill="#0017EA"/>
<path d="M65.3139 444.06H209.514L209.577 443.801C214.802 408.689 209.896 383.728 194.985 369.761C176.761 352.625 148.405 356.117 133.176 359.738C115.844 363.812 101.507 370.796 90.4835 380.431C81.6901 388.126 74.9997 397.566 70.6667 408.495C63.2751 427.053 65.1867 443.607 65.2504 443.801L65.3139 444.06ZM209.004 443.413H65.8876C65.6965 441.15 64.4858 425.76 71.3039 408.689C78.0583 391.747 94.3069 369.567 133.304 360.32C148.406 356.764 176.506 353.272 194.539 370.214C209.322 384.052 214.165 408.689 209.004 443.413Z" fill="#3F3D56"/>
<path d="M240.227 344.09H145.22C135.343 344.09 127.314 335.942 127.314 325.919C127.314 315.314 136.235 306.973 146.621 307.813L241.31 315.444C248.638 316.026 254.309 322.233 254.309 329.734C254.309 337.623 248.001 344.09 240.227 344.09Z" fill="#3F3D56"/>
<path d="M337.592 436.429H446.171C446.171 436.429 444.387 420.199 433.618 405.455C410.042 373.447 361.041 377.844 343.709 413.668C340.587 420.005 338.42 427.506 337.592 436.429Z" fill="#0017EA"/>
<path d="M337.21 436.752H446.49L446.426 436.365C446.426 436.171 444.515 419.875 433.81 405.261C422.659 390.065 404.817 382.047 386.083 383.793C367.477 385.539 351.547 396.661 343.327 413.538C340.077 420.328 337.974 427.958 337.21 436.365V436.752ZM445.789 436.106H337.974C338.739 427.958 340.778 420.457 343.964 413.862C352.056 397.178 367.795 386.186 386.211 384.504C404.69 382.758 422.34 390.712 433.364 405.714C443.049 418.97 445.407 433.649 445.789 436.106Z" fill="#3F3D56"/>
<path d="M64.868 448.004H344.155V439.468H446.044V431.709H343.964C339.822 431.709 336.508 435.136 336.508 439.274V440.244H64.868V448.004Z" fill="#3F3D56"/>
<path d="M260.809 489.841H279.479V482.082H263.421L227.483 454.276L222.895 460.419L260.809 489.841Z" fill="#3F3D56"/>
<path d="M354.988 255.953H378.246C379.647 255.953 381.049 255.759 382.324 255.436C389.715 253.561 395.195 246.771 395.195 238.688C395.195 233.903 393.284 229.635 390.225 226.531C388.059 224.333 385.382 222.781 382.324 222.005C380.986 221.682 379.647 221.488 378.182 221.488H374.805C363.144 221.488 351.993 227.372 345.939 237.524C345.621 238.041 345.302 238.623 344.984 239.205C341.097 246.836 346.513 255.953 354.988 255.953Z" fill="#0017EA"/>
<path d="M354.988 256.277H378.246C379.647 256.277 381.049 256.083 382.451 255.759C390.161 253.819 395.578 246.836 395.578 238.688C395.578 233.968 393.793 229.571 390.48 226.273C388.25 224.009 385.446 222.393 382.451 221.617C381.049 221.294 379.647 221.1 378.246 221.1H374.868C362.889 221.1 351.738 227.307 345.748 237.33C345.429 237.912 345.111 238.429 344.792 239.011C342.881 242.633 342.944 246.965 345.047 250.522C347.214 254.143 350.909 256.277 354.988 256.277ZM378.246 221.811C379.584 221.811 380.986 222.005 382.26 222.328C385.191 223.04 387.867 224.591 390.034 226.79C393.156 229.959 394.94 234.226 394.94 238.753C394.94 246.577 389.715 253.302 382.324 255.177C380.985 255.501 379.647 255.695 378.309 255.695H355.051C351.164 255.695 347.66 253.69 345.684 250.263C343.709 246.9 343.582 242.827 345.429 239.399C345.748 238.817 346.067 238.3 346.385 237.718C352.248 227.889 363.208 221.811 374.932 221.811H378.246V221.811Z" fill="#3F3D56"/>
<path d="M370.663 238.753C370.663 245.607 373.594 251.75 378.245 256.018H378.309C387.676 256.018 395.323 248.323 395.323 238.753C395.323 233.968 393.411 229.7 390.352 226.596C387.294 223.492 383.025 221.552 378.373 221.552H378.309C373.53 225.755 370.663 231.898 370.663 238.753Z" fill="#3F3D56"/>
<path d="M375.313 238.753C375.313 245.348 377.99 251.233 382.323 255.501C389.714 253.625 395.194 246.836 395.194 238.753C395.194 233.968 393.283 229.7 390.224 226.596C388.058 224.397 385.381 222.846 382.323 222.07C377.99 226.208 375.313 232.157 375.313 238.753Z" fill="#FEFEFE"/>
<path d="M382.26 255.824L382.451 255.759C390.161 253.819 395.578 246.836 395.578 238.688C395.578 233.968 393.793 229.571 390.48 226.273C388.25 224.009 385.446 222.393 382.451 221.617L382.26 221.552L382.133 221.682C377.545 226.143 374.996 232.157 374.996 238.623C374.996 245.09 377.545 251.103 382.133 255.565L382.26 255.824ZM382.451 222.393C385.319 223.169 387.931 224.656 390.034 226.79C393.156 229.958 394.94 234.226 394.94 238.753C394.94 246.512 389.843 253.173 382.451 255.113C378.054 250.78 375.633 244.96 375.633 238.753C375.633 232.48 378.054 226.725 382.451 222.393Z" fill="#3F3D56"/>
<path d="M332.111 240.24H344.665V245.478H332.111V240.24Z" fill="#0017EA"/>
<path d="M331.857 245.866H345.047V239.981H331.857V245.866ZM344.346 245.219H332.43V240.628H344.346V245.219Z" fill="#3F3D56"/>
<path d="M349.38 238.494H344.346C341.988 238.494 340.14 240.434 340.14 242.762C340.14 245.154 342.052 247.03 344.346 247.03H349.38C351.737 247.03 353.585 245.09 353.585 242.762C353.585 240.434 351.737 238.494 349.38 238.494Z" fill="#3F3D56"/>
<path d="M334.533 242.826C334.533 245.219 332.622 247.094 330.328 247.094H316.564C314.207 247.094 312.359 245.154 312.359 242.826C312.359 240.434 314.27 238.559 316.564 238.559H330.328C332.622 238.494 334.533 240.434 334.533 242.826Z" fill="#3F3D56"/>
<path d="M107.114 427.182H169.306V430.804H107.114V427.182Z" fill="white"/>
<path d="M106.796 431.127H169.625V426.859H106.796V431.127ZM168.987 430.48H107.433V427.506H168.987V430.48Z" fill="black"/>
<path d="M107.114 417.612H169.306V421.233H107.114V417.612Z" fill="white"/>
<path d="M106.796 421.557H169.625V417.289H106.796V421.557ZM168.987 420.91H107.433V417.935H168.987V420.91Z" fill="black"/>
<path d="M107.114 408.107H169.306V411.728H107.114V408.107Z" fill="white"/>
<path d="M106.796 412.051H169.625V407.783H106.796V412.051ZM168.987 411.404H107.433V408.43H168.987V411.404Z" fill="black"/>
<path d="M201.803 489.777H332.43V491.07H201.803V489.777Z" fill="#3F3D56"/>
<path d="M456.248 516.516H865.196V517.516H456.248V516.516Z" fill="#3F3D56"/>
<path d="M549.415 516.383H599.24C599.24 516.383 596.096 505.493 574.02 496.546L574.088 494.049L574.293 480.524H550.713L550.304 492.454L549.415 516.383Z" fill="#3F3D56"/>
<path d="M549.005 516.729H599.651L599.514 516.313C599.378 515.897 596.097 505.216 574.294 496.338L574.499 480.247H550.236L549.005 516.729ZM598.762 516.036H549.757L550.988 480.871H573.884L573.679 496.754L573.884 496.823C593.021 504.661 597.874 513.955 598.762 516.036Z" fill="#3F3D56"/>
<path d="M484.485 516.383H534.31C534.31 516.383 531.166 505.493 509.09 496.546L509.295 494.881L511.209 480.524H487.629L486.535 493.009L484.485 516.383Z" fill="#3F3D56"/>
<path d="M484.075 516.729H534.789L534.652 516.313C534.515 515.897 531.234 505.216 509.432 496.338L511.55 480.177H487.287L484.075 516.729ZM533.832 516.036H484.826L487.902 480.871H510.798L508.68 496.754L508.953 496.823C528.159 504.661 532.943 513.955 533.832 516.036Z" fill="#3F3D56"/>
<path d="M778.79 516.383H828.615L825.403 491.067L824.104 480.524H800.524L803.327 493.494L804.01 499.32C780.84 506.534 778.79 516.383 778.79 516.383Z" fill="#3F3D56"/>
<path d="M778.38 516.729H829.025L824.446 480.177H800.114L803.053 493.564L803.668 499.043C780.84 506.187 778.517 515.897 778.448 516.313L778.38 516.729ZM828.274 516.036H779.268C780.02 514.094 784.189 505.84 804.147 499.667L804.42 499.598L803.737 493.494L801.003 480.94H823.831L828.274 516.036Z" fill="#3F3D56"/>
<path d="M721.378 516.383H771.203L769.973 491.483L769.426 480.524H745.846L746.461 493.841L746.598 498.557C724.522 507.574 721.378 516.383 721.378 516.383Z" fill="#3F3D56"/>
<path d="M720.899 516.729H771.613L769.768 480.177H745.504L746.188 493.91L746.325 498.419C724.522 507.297 721.241 515.967 721.104 516.313L720.899 516.729ZM770.861 516.036H721.924C722.95 514.094 728.008 506.534 746.735 498.904L746.94 498.835L746.803 493.841L746.188 480.871H769.084L770.861 516.036Z" fill="#3F3D56"/>
<path d="M588.578 19.4941L553.926 11.5872L550.167 24.9735C549.21 24.2799 548.253 23.8637 547.364 23.8637C543.264 23.8637 542.444 28.8576 542.444 28.8576C541.282 34.2676 544.767 37.5968 546.339 39.955L534.447 78.588L563.905 83.2351L566.433 58.5433C591.79 71.5134 588.578 19.4941 588.578 19.4941Z" fill="#FFB6B6"/>
<path d="M564.246 83.5125L566.775 58.9593C571.764 61.3869 576.07 61.5256 579.488 59.2368C590.833 51.6073 589.056 20.7425 588.988 19.4247V19.1472L553.721 11.1016L550.03 24.2798C549.141 23.6556 548.253 23.3781 547.433 23.3781C543.127 23.3781 542.17 28.58 542.17 28.6494C541.145 33.3658 543.537 36.487 545.246 38.7758C545.519 39.1226 545.792 39.4694 545.997 39.8162L534.037 78.6573L564.246 83.5125ZM566.16 57.919L563.631 82.7495L534.925 78.1718L546.749 39.8162L546.681 39.6775C546.408 39.3307 546.134 38.9146 545.793 38.4984C544.152 36.2789 541.897 33.2965 542.853 28.9268C542.922 28.7188 543.674 24.2104 547.433 24.2104C548.253 24.2104 549.141 24.5572 550.03 25.2508L550.44 25.5282L554.268 12.0032L588.373 19.7714C588.51 22.8232 589.672 51.6766 579.146 58.6819C575.865 60.9014 571.628 60.6933 566.707 58.1964L566.16 57.919Z" fill="#3F3D56"/>
<path d="M598.967 4.37379C597.395 4.027 593.431 4.37379 591.039 6.3852C591.176 6.10777 591.312 5.83034 591.449 5.55291C595.003 -5.26711 580.035 2.77854 572.107 4.37379C570.466 4.72059 566.844 5.20611 566.844 5.20611C543.127 -0.273256 545.52 24.2799 545.52 24.2799C551.739 23.3782 553.585 31.9787 553.585 31.9787C559.941 28.9269 561.923 24.5573 562.128 22.6846C568.279 25.5283 584.068 30.9383 597.122 21.3668C606.076 14.7777 602.931 5.13674 598.967 4.37379Z" fill="#2F2E41"/>
<path d="M736.619 107.233C736.619 107.233 746.257 88.9919 747.077 79.9059L743.044 59.9304C743.044 59.9304 742.566 40.7873 767.376 45.4344C767.376 45.4344 767.239 36.4177 773.117 34.2676C773.117 34.2676 770.246 39.3308 771.272 44.3246C771.272 44.3246 776.056 33.2272 785.078 39.0534C785.078 39.0534 792.049 42.9375 790.204 50.0121C790.204 50.0121 790.341 58.0577 779.473 58.1965C779.473 58.1965 779.61 68.2535 803.6 81.9173C803.6 81.9173 823.558 91.6275 821.917 112.782C820.277 133.937 801.686 147.254 801.686 147.254L733.339 147.323L736.619 107.233Z" fill="#2F2E41"/>
<path d="M774.552 115.002L771.614 80.114C771.614 80.114 776.74 77.0622 775.441 71.0973C775.441 71.0973 774.211 66.3115 769.495 69.9875L769.358 61.5257C769.358 61.5257 752.818 67.8374 743.181 58.3352C743.181 58.3352 736.21 91.3501 750.904 91.2808L747.76 119.024L774.552 115.002Z" fill="#FFB6B6"/>
<path d="M747.419 119.441L774.962 115.348L772.024 80.322C772.981 79.6978 777.013 76.5766 775.851 71.0279C775.851 70.9586 775.304 68.9471 773.664 68.3923C772.57 68.0455 771.34 68.3229 769.905 69.2939L769.768 61.0402L769.29 61.1789C769.153 61.2483 752.886 67.2825 743.454 58.0578L743.044 57.6416L742.908 58.2659C742.702 59.1675 738.26 80.6688 744.685 88.6451C746.188 90.5178 748.17 91.4889 750.563 91.5582L747.419 119.441ZM774.211 114.724L748.238 118.608L751.383 90.934H750.972C748.58 90.934 746.667 90.0323 745.231 88.229C739.627 81.2237 742.839 62.6355 743.523 59.0288C752.339 67.0744 766.419 62.9129 769.153 62.0112L769.29 70.6811L769.836 70.265C771.272 69.1552 772.502 68.7391 773.459 69.0859C774.758 69.502 775.236 71.236 775.236 71.236C776.466 76.9234 771.75 79.7672 771.545 79.9059L771.34 80.0446V80.2527L774.211 114.724Z" fill="#FFB6B6"/>
<path d="M550.236 492.523L574.02 494.049L574.226 480.524H550.646L550.236 492.523Z" fill="#3F3D56"/>
<path d="M486.535 493.009L509.295 494.881L511.209 480.524H487.629L486.535 493.009Z" fill="#3F3D56"/>
<path d="M520.504 201.423L521.461 206.694L527.271 239.224L542.307 322.871L543.196 350.476L547.775 488.778H587.553L591.996 323.703L585.708 231.663L583.589 201.423H520.504Z" fill="#CDCBCC"/>
<path d="M547.433 489.125H587.895V488.778L592.338 323.703L583.931 201.076H520.094L541.966 322.94L547.433 489.125ZM587.212 488.431H548.048L542.581 322.871L520.846 201.77H583.179L591.654 323.772L587.212 488.431Z" fill="#3F3D56"/>
<path d="M800.524 480.524L803.395 493.494L825.471 491.066L824.104 480.524H800.524Z" fill="#3F3D56"/>
<path d="M745.846 480.524L746.462 493.91L769.973 491.483L769.426 480.524H745.846Z" fill="#3F3D56"/>
<path d="M480.042 489.471H520.231L543.196 350.475L548.322 319.333L557.07 239.015L560.556 206.694H495.284L495.558 232.218L496.514 316.42L480.042 489.471Z" fill="#CDCBCC"/>
<path d="M479.701 489.818H520.573L520.641 489.541L548.732 319.403L561.034 206.347H495.01L496.241 316.42L479.701 489.818ZM519.957 489.124H480.452L496.856 316.49L495.626 207.041H560.214L547.98 319.264L519.957 489.124Z" fill="#3F3D56"/>
<path d="M726.845 302.548L737.371 488.778H773.732L772.502 370.728L771.75 303.381L777.013 240.958L779.063 216.058L748.58 215.572L731.356 215.225L729.921 243.177L726.845 302.548Z" fill="#3F3D56"/>
<path d="M737.098 489.125H774.074V488.778L772.092 303.381L779.473 215.711L731.083 214.879L726.504 302.549L737.098 489.125ZM773.39 488.431H737.713L727.187 302.549L731.698 215.572L778.721 216.405L771.408 303.381L773.39 488.431Z" fill="#3F3D56"/>
<path d="M495.284 206.694L495.557 232.218C506.903 236.033 517.565 238.253 527.27 239.224C538.411 240.403 548.458 240.056 557.07 238.946C569.988 237.351 579.83 234.022 585.639 231.594L583.589 201.354H520.504L521.461 206.625H495.284V206.694Z" fill="#3F3D56"/>
<path d="M748.17 212.659L748.58 215.572L752.476 244.356L762.797 320.235L772.502 370.729L794.92 487.668L828.205 488.362L812.895 316.559L808.658 226.808L807.906 210.995L748.17 212.659Z" fill="#3F3D56"/>
<path d="M828.615 488.708V488.292L813.305 316.49L808.248 210.578L747.829 212.243L762.455 320.304L794.647 488.015L828.615 488.708ZM807.564 211.341L812.554 316.559L827.863 487.945L795.193 487.252L763.138 320.096L748.58 212.937L807.564 211.341Z" fill="#3F3D56"/>
<path d="M734.227 112.227L707.708 147.253L670.664 154.605V181.655L714.064 177.494C717.072 177.217 719.874 176.107 722.335 174.373L739.695 161.888L734.227 112.227Z" fill="#CDCBCC"/>
<path d="M670.322 182.072L714.133 177.841C717.14 177.563 720.079 176.454 722.608 174.65L740.173 162.027L734.569 111.325L707.571 146.907L670.39 154.328V182.072H670.322ZM739.421 161.75L722.198 174.165C719.806 175.899 717.003 176.939 714.064 177.217L671.005 181.378V154.952L707.913 147.6L707.982 147.531L734.022 113.198L739.421 161.75Z" fill="#3F3D56"/>
<path d="M565.614 74.3572C565.614 74.3572 560.487 86.6338 537.454 62.4275L497.949 77.201C492.345 79.6979 488.381 84.8998 487.356 91.0034L481.136 126.654H502.734L492.755 221.953C492.755 221.953 521.871 229.791 544.152 230.276C580.923 231.109 589.057 224.45 589.057 224.45L587.416 190.603L587.143 113.614C587.553 102.656 583.042 94.402 576.618 85.5241L565.614 74.3572Z" fill="#0017EA"/>
<path d="M550.304 230.693C581.539 230.693 588.92 224.936 589.194 224.728L589.33 224.589L587.69 190.534L587.416 113.545C587.827 102.794 583.452 94.4019 576.823 85.2465L565.477 73.7329L565.272 74.2184C565.204 74.2878 564.247 76.4379 561.376 76.9928C557.617 77.6864 550.509 75.675 537.66 62.1499L537.523 62.0112L537.318 62.0806L497.813 76.8541C492.072 79.4204 488.039 84.6916 487.014 90.934L480.726 127.001H502.324L492.345 222.231L492.618 222.3C492.892 222.369 522.008 230.138 544.084 230.693C546.203 230.693 548.322 230.693 550.304 230.693ZM588.647 224.242C587.416 225.074 577.78 230.693 544.084 229.93C523.306 229.444 496.172 222.439 493.097 221.676L503.076 126.238H481.546L487.697 91.0033C488.723 84.9691 492.55 79.9059 498.086 77.4783L537.386 62.8435C550.372 76.4379 557.754 78.4493 561.581 77.6864C564.042 77.2009 565.272 75.675 565.75 74.912L576.412 85.6627C583.111 94.9568 587.212 102.933 586.801 113.545L587.075 190.534L588.647 224.242Z" fill="#3F3D56"/>
<path d="M589.194 110.146H698.208V196.29H589.194V110.146Z" fill="#3F3D56"/>
<path d="M570.398 110.146H670.117V196.29H570.398V110.146Z" fill="#FEFEFE"/>
<path d="M570.056 196.637H670.458V109.8H570.056V196.637ZM669.775 195.944H570.739V110.493H669.775V195.944Z" fill="#3F3D56"/>
<path d="M604.572 110.146V131.648L610.792 128.18L615.576 131.44L621.317 128.18L626.648 131.648V110.146H604.572Z" fill="#3F3D56"/>
<path d="M626.58 152.455H649.613V153.843H626.58V152.455Z" fill="#3F3D56"/>
<path d="M626.58 161.542H649.613V162.929H626.58V161.542Z" fill="#3F3D56"/>
<path d="M626.58 170.627H649.613V172.015H626.58V170.627Z" fill="#3F3D56"/>
<path d="M582.7 150.583H619.95V174.165H582.7V150.583Z" fill="#FEFEFE"/>
<path d="M582.359 174.512H620.292V150.236H582.359V174.512ZM619.608 173.818H583.042V150.929H619.608V173.818Z" fill="#3F3D56"/>
<path d="M729.921 243.177C735.662 244.01 743.522 244.703 752.476 244.356C759.994 244.079 768.332 243.108 776.944 240.958C787.401 238.322 798.269 233.883 808.589 226.808L807.837 210.995L748.17 212.659L748.58 215.572L731.357 215.295L729.921 243.177Z" fill="#3F3D56"/>
<path d="M670.322 199.134C670.937 200.174 671.757 201.007 672.714 201.7C673.671 202.394 674.765 202.879 675.927 203.088L681.326 204.336C684.812 205.099 688.366 205.515 691.92 205.515H696.636C698.003 205.515 699.37 205.168 700.532 204.475L705.59 201.631L710.921 201.007L730.742 198.579V183.112L714.065 185.748L706.341 186.996L689.596 182.28C689.596 182.28 686.657 188.453 695.816 191.574L686.931 196.013H672.031C670.459 195.874 669.434 197.747 670.322 199.134Z" fill="#FFB6B6"/>
<path d="M691.988 205.792H696.704C698.14 205.792 699.575 205.446 700.805 204.683L705.795 201.908L731.151 198.787V182.627L706.41 186.58L689.459 181.794L689.323 182.072C689.254 182.141 688.229 184.36 689.323 186.857C690.143 188.869 692.057 190.464 694.996 191.574L686.931 195.597H672.099C671.211 195.597 670.39 196.082 669.98 196.845C669.57 197.608 669.57 198.579 670.049 199.342C670.732 200.382 671.552 201.284 672.509 201.978C673.534 202.671 674.628 203.157 675.79 203.434L681.19 204.683C684.812 205.446 688.366 205.792 691.988 205.792ZM730.468 198.232L705.521 201.284L700.463 204.128C699.301 204.752 698.003 205.099 696.704 205.099H691.988C688.434 205.099 684.88 204.683 681.463 203.92L676.063 202.671C674.97 202.394 673.945 201.978 672.988 201.284C672.099 200.66 671.279 199.828 670.664 198.857C670.322 198.302 670.322 197.608 670.596 197.053C670.869 196.498 671.484 196.152 672.099 196.152H687.067L696.773 191.296L695.952 191.019C692.808 189.979 690.758 188.383 689.938 186.441C689.186 184.707 689.596 183.112 689.869 182.488L706.41 187.135L730.468 183.32V198.232Z" fill="#3F3D56"/>
<path d="M603.341 57.156H670.938V110.563H603.341V57.156Z" fill="#3F3D56"/>
<path d="M591.722 57.156H653.509V110.563H591.722V57.156Z" fill="#0017EA"/>
<path d="M591.381 110.909H653.851V56.8093H591.381V110.909ZM653.167 110.216H592.064V57.5029H653.167V110.216Z" fill="#3F3D56"/>
<path d="M612.842 57.156V70.4729L616.738 68.3228L619.745 70.3342L623.299 68.3228L626.58 70.4729V57.156H612.842Z" fill="#3F3D56"/>
<path d="M626.512 83.0964H640.796V84.4836H626.512V83.0964Z" fill="#3F3D56"/>
<path d="M626.512 88.7144H640.796V90.1015H626.512V88.7144Z" fill="#3F3D56"/>
<path d="M626.512 94.4019H640.796V95.789H626.512V94.4019Z" fill="#3F3D56"/>
<path d="M599.309 82.1946H622.411V96.8293H599.309V82.1946Z" fill="#FEFEFE"/>
<path d="M598.967 97.1762H622.752V81.8479H598.967V97.1762ZM622.069 96.4827H599.651V82.5415H622.069V96.4827Z" fill="#3F3D56"/>
<path d="M710.989 200.937L730.81 198.51V183.043L714.133 185.678L710.989 200.937Z" fill="#3F3D56"/>
<path d="M717.004 184.153L729.511 181.725L731.562 119.441C731.699 115.487 733.476 111.742 736.483 109.175L749.264 98.3555C749.264 98.3555 751.724 114.239 775.578 98.3555L797.654 106.401C803.874 108.69 808.59 114.031 810.093 120.55L824.036 189.285C825.335 195.666 820.687 201.701 814.263 201.909L807.633 202.117L810.845 224.034C810.845 224.034 788.085 233.952 764.711 235.409C737.782 237.143 728.965 230.623 729.307 229.722L730.674 206.417L717.004 206.972V184.153V184.153Z" fill="#CDCBCC"/>
<path d="M755.962 236.172C758.627 236.172 761.566 236.103 764.71 235.895C787.88 234.438 810.708 224.589 810.982 224.45L811.255 224.312L811.187 224.034L808.043 202.533L814.331 202.325C817.475 202.186 820.413 200.729 822.396 198.163C824.378 195.666 825.129 192.406 824.446 189.285L810.503 120.55C808.931 113.823 804.215 108.482 797.79 106.124L775.577 98.0086L775.441 98.078C766.214 104.251 758.901 106.401 754.253 104.32C750.357 102.586 749.674 98.3554 749.674 98.3554L749.605 97.7312L736.414 108.967C733.339 111.603 731.493 115.418 731.357 119.51L729.306 181.517L716.798 183.945V207.527L730.468 206.972L729.101 229.86C729.033 230.068 729.101 230.207 729.238 230.415C730.058 231.733 737.235 236.172 755.962 236.172ZM810.435 223.895C807.906 224.936 786.445 233.744 764.642 235.132C738.875 236.796 730.058 230.831 729.648 229.86V229.791L731.015 206.07L717.277 206.625V184.361L729.785 181.933L731.835 119.371C731.972 115.487 733.749 111.88 736.619 109.384L748.922 98.9103C749.264 100.228 750.426 103.349 753.775 104.806C758.696 107.025 765.941 104.945 775.509 98.6329L797.449 106.609C803.6 108.829 808.179 114.031 809.683 120.55L823.626 189.285C824.241 192.198 823.489 195.25 821.712 197.608C819.867 199.966 817.133 201.354 814.194 201.492L807.154 201.7L810.435 223.895Z" fill="#3F3D56"/>
<path d="M807.575 201.725L807.615 202.417L730.095 206.914L730.056 206.222L807.575 201.725Z" fill="#3F3D56"/>
<path d="M729.238 182.072L788.222 169.726L782.891 139.901L782.207 140.04L787.47 169.171L729.101 181.447L729.238 182.072Z" fill="#3F3D56"/>
<path d="M477.923 170.489C477.308 177.494 481.614 184.014 488.244 186.095L558.095 208.151L564.725 210.509C567.254 211.411 569.988 211.688 572.653 211.341L586.049 209.677C586.87 209.538 587.758 209.33 588.51 209.053L604.162 203.226C606.144 202.463 607.921 201.076 609.083 199.273L609.288 198.926C610.108 197.678 609.219 196.013 607.716 196.013H582.564C589.877 191.297 589.33 187.135 589.33 187.135L573.884 189.285L562.606 190.672L509.363 164.316L515.515 133.174L516.745 126.862H481.341L480.999 130.538L477.923 170.489Z" fill="#FFB6B6"/>
<path d="M570.534 211.827C571.286 211.827 572.038 211.758 572.722 211.688L586.118 210.024C587.006 209.885 587.895 209.677 588.646 209.399L604.298 203.573C606.417 202.81 608.126 201.423 609.356 199.481L609.561 199.134C610.039 198.441 610.039 197.539 609.629 196.845C609.219 196.082 608.536 195.666 607.647 195.666H583.657C590.082 191.158 589.672 187.274 589.604 187.066L589.535 186.719L573.747 188.869L562.538 190.187L509.637 164.038L517.087 126.376H480.999L477.308 170.42C476.693 177.633 481.067 184.222 487.902 186.372L557.753 208.428L564.383 210.786C566.502 211.48 568.552 211.827 570.534 211.827ZM607.852 196.36C608.399 196.36 608.946 196.637 609.219 197.192C609.492 197.678 609.492 198.302 609.151 198.787L608.946 199.134C607.784 200.868 606.144 202.186 604.23 202.949L588.578 208.775C587.826 209.053 587.006 209.261 586.186 209.399L572.79 211.064C570.193 211.411 567.459 211.133 564.998 210.232L558.369 207.873L488.517 185.817C482.024 183.736 477.855 177.494 478.402 170.558L482.024 127.139H516.676L509.295 164.455L509.5 164.593L562.811 190.95L574.225 189.563L589.262 187.482C589.193 188.522 588.441 191.921 582.632 195.666L581.675 196.29H607.852V196.36Z" fill="#FFB6B6"/>
<path d="M520.011 111.829L520.676 111.99L516.895 127.975L516.23 127.813L520.011 111.829Z" fill="#3F3D56"/>
<path d="M481.273 130.399L515.652 133.104L516.95 126.723H481.546L481.273 130.399Z" fill="#3F3D56"/>
<path d="M665.427 312.638C663.631 312.637 661.852 312.996 660.192 313.693C658.532 314.39 657.024 315.412 655.753 316.701C654.482 317.99 653.474 319.521 652.786 321.205C652.098 322.889 651.744 324.695 651.743 326.518C651.743 322.836 650.302 319.304 647.737 316.7C645.171 314.096 641.692 312.633 638.064 312.633C641.692 312.633 645.171 311.17 647.737 308.566C650.302 305.962 651.743 302.43 651.743 298.748C651.743 302.43 653.184 305.962 655.75 308.566C658.315 311.17 661.795 312.633 665.422 312.633L665.427 312.638Z" fill="#555185"/>
<path d="M701.666 400.385C704.748 400.385 707.246 397.848 707.246 394.72C707.246 391.592 704.748 389.055 701.666 389.055C698.583 389.055 696.085 391.592 696.085 394.72C696.085 397.848 698.583 400.385 701.666 400.385Z" fill="#0017EA"/>
<path d="M472.681 335.845C475.763 335.845 478.261 333.309 478.261 330.181C478.261 327.052 475.763 324.516 472.681 324.516C469.599 324.516 467.1 327.052 467.1 330.181C467.1 333.309 469.599 335.845 472.681 335.845Z" fill="#0017EA"/>
<path d="M663.35 243.471C667.288 243.471 670.481 240.231 670.481 236.234C670.481 232.236 667.288 228.996 663.35 228.996C659.413 228.996 656.22 232.236 656.22 236.234C656.22 240.231 659.413 243.471 663.35 243.471Z" fill="#0017EA"/>
<path d="M272.729 394.362C269.754 394.362 266.901 395.561 264.798 397.696C262.694 399.831 261.512 402.727 261.512 405.747V405.747C261.512 402.727 260.331 399.831 258.227 397.696C256.124 395.561 253.271 394.362 250.296 394.362V394.362C253.271 394.362 256.124 393.162 258.227 391.027C260.331 388.892 261.512 385.996 261.512 382.976V382.976C261.512 385.996 262.694 388.892 264.798 391.027C266.901 393.162 269.754 394.362 272.729 394.362V394.362Z" fill="#555185"/>
<path d="M338.315 386.888C340.371 386.888 342.037 385.196 342.037 383.11C342.037 381.023 340.371 379.332 338.315 379.332C336.26 379.332 334.593 381.023 334.593 383.11C334.593 385.196 336.26 386.888 338.315 386.888Z" fill="#0017EA"/>
<path d="M443.66 196.824C441.863 196.823 440.084 197.182 438.424 197.879C436.764 198.576 435.256 199.598 433.985 200.887C432.715 202.176 431.707 203.707 431.019 205.391C430.331 207.075 429.976 208.881 429.976 210.704C429.976 207.022 428.534 203.49 425.969 200.886C423.404 198.282 419.924 196.819 416.296 196.819C419.924 196.819 423.404 195.356 425.969 192.752C428.534 190.148 429.976 186.616 429.976 182.934C429.976 186.616 431.417 190.148 433.982 192.752C436.548 195.356 440.027 196.819 443.655 196.819L443.66 196.824Z" fill="#555185"/>
<path d="M419.938 109.091L420.037 109.661L420.587 109.48C421.923 109.041 423.317 108.817 424.72 108.817L424.72 108.317L424.736 108.817C426.536 108.759 428.33 109.069 430.01 109.729C431.69 110.389 433.223 111.385 434.518 112.658C435.812 113.931 436.842 115.456 437.545 117.142C438.248 118.828 438.611 120.64 438.611 122.471C438.611 124.303 438.248 126.115 437.545 127.801C436.842 129.487 435.812 131.012 434.518 132.285C433.223 133.558 431.69 134.554 430.01 135.214C428.33 135.873 426.536 136.184 424.736 136.126L424.728 136.126H424.72L367.868 136.126L367.865 136.126C366.183 136.136 364.522 135.738 363.022 134.965C361.521 134.192 360.223 133.066 359.237 131.679C358.25 130.293 357.604 128.687 357.352 126.995C357.1 125.303 357.25 123.575 357.79 121.954C358.329 120.333 359.242 118.867 360.451 117.677C361.66 116.488 363.132 115.61 364.742 115.115C366.352 114.62 368.056 114.523 369.71 114.831C371.365 115.14 372.923 115.845 374.256 116.889L375.236 117.657L375.059 116.425C374.198 110.424 375.698 104.321 379.232 99.4343C382.767 94.5481 388.051 91.2713 393.943 90.3091C399.835 89.3469 405.864 90.7759 410.728 94.2891C415.593 97.8024 418.902 103.119 419.938 109.091Z" fill="white" stroke="black"/>
<path d="M437.318 516.072C439.373 516.072 441.039 514.381 441.039 512.294C441.039 510.208 439.373 508.516 437.318 508.516C435.262 508.516 433.596 510.208 433.596 512.294C433.596 514.381 435.262 516.072 437.318 516.072Z" fill="#0017EA"/>
<path d="M931.156 323.237L931.257 323.8L931.802 323.624C932.726 323.326 933.689 323.176 934.658 323.18C937.064 323.273 939.342 324.307 941.015 326.068C942.69 327.832 943.628 330.188 943.629 332.64C943.63 335.093 942.694 337.45 941.021 339.215C939.35 340.978 937.073 342.014 934.669 342.109H894.651C893.497 342.109 892.359 341.83 891.332 341.295C890.304 340.76 889.416 339.984 888.742 339.03C888.068 338.077 887.626 336.973 887.455 335.811C887.284 334.649 887.388 333.462 887.758 332.349C888.128 331.236 888.754 330.229 889.583 329.412C890.412 328.594 891.42 327.989 892.524 327.646C893.627 327.304 894.795 327.232 895.931 327.439C897.067 327.645 898.139 328.123 899.058 328.834L900.028 329.584L899.859 328.37C899.278 324.194 900.334 319.954 902.798 316.561C905.262 313.168 908.937 310.893 913.032 310.222C917.127 309.551 921.319 310.536 924.708 312.969C928.097 315.401 930.413 319.087 931.156 323.237Z" fill="white" stroke="black"/>
</svg>
